<svg width="22" height="29" viewBox="0 0 22 29" fill="none" xmlns="http://www.w3.org/2000/svg">
<path d="M8.12965 21.5846C8.45921 21.2963 8.82754 20.9745 9.21526 20.6349C9.41881 20.9377 9.60405 21.2505 9.82376 21.5344C10.8921 22.9188 12.2858 23.6652 13.9917 23.7658C14.6229 23.8026 14.9987 23.4987 15.0235 22.9791C15.0483 22.454 14.7026 22.1333 14.0736 22.0975C11.9907 21.9802 10.4053 20.3969 10.2136 18.2437C10.2039 18.1319 10.1975 18.0213 10.1867 17.9096C10.1415 17.4157 9.89377 17.0961 9.40696 17.0827C8.92232 17.0693 8.65199 17.3665 8.58629 17.8615C8.56906 17.9911 8.55937 18.1208 8.54321 18.2504C8.39566 19.4057 7.50499 20.303 6.39891 20.4136C5.73117 20.4795 5.35638 20.1667 5.34992 19.475C5.33484 17.8738 5.34453 16.2726 5.34561 14.6714C5.34669 14.1596 5.55993 13.7417 6.07043 13.7373C7.79147 13.7227 9.51682 13.7015 11.2325 13.811C12.5593 13.8959 13.7096 14.5518 14.6573 15.5173C15.7311 16.6112 16.9955 17.1285 18.4957 17.0726C19.1764 17.0481 19.8592 17.0626 20.541 17.0704C21.1828 17.0771 21.4919 17.3576 21.4941 18.0045C21.5049 20.741 21.5059 23.4786 21.493 26.2151C21.4898 26.8307 21.1764 27.1146 20.5711 27.1257C19.3336 27.147 18.0876 27.0721 16.8619 27.2073C16.0423 27.2978 15.2281 27.6163 14.4559 27.9459C13.0224 28.5593 11.562 28.9169 9.96485 28.7772C10.5206 26.9391 9.97777 25.5849 8.34181 24.7826C8.41505 24.2127 8.56583 23.6652 8.53029 23.1311C8.49906 22.6137 8.27396 22.1087 8.12965 21.5846Z" fill="white"/>
<path d="M6.16321 10.3135C5.35008 10.3135 4.60264 10.3135 3.85412 10.3135C3.04637 10.3135 2.2397 10.3247 1.43195 10.3091C0.790056 10.2968 0.504651 10.0107 0.502497 9.34477C0.492804 6.6273 0.492804 3.90871 0.50142 1.19125C0.503574 0.501822 0.801903 0.200129 1.4578 0.200129C5.67425 0.19566 9.88963 0.19566 14.1061 0.200129C14.7286 0.201247 15.0323 0.506292 15.0355 1.16219C15.0452 3.87966 15.0452 6.59713 15.0366 9.3146C15.0345 10.0096 14.7501 10.3012 14.0802 10.308C12.7523 10.3202 11.4254 10.3124 10.0975 10.3124C9.88425 10.3124 9.66992 10.3124 9.41252 10.3124C9.41252 10.8856 9.41252 11.4186 9.41252 11.9974C8.3226 11.9974 7.27575 11.9974 6.16321 11.9974C6.16321 11.4689 6.16321 10.9225 6.16321 10.3135ZM6.93973 5.8105C6.74479 5.58478 6.60586 5.41606 6.45723 5.25516C6.29676 5.07973 6.13413 4.90653 5.96181 4.7434C5.56009 4.36349 5.09806 4.35231 4.76849 4.70764C4.45293 5.04844 4.45616 5.51662 4.81265 5.90436C5.321 6.45522 5.84226 6.9938 6.37107 7.52232C6.71463 7.86647 7.13143 7.92905 7.4793 7.57931C8.59938 6.45299 9.70116 5.30767 10.7878 4.14783C11.1056 3.80927 11.0743 3.39584 10.7717 3.03939C10.482 2.69747 10.0275 2.68183 9.66131 2.98799C9.53637 3.09191 9.4276 3.21817 9.31344 3.33662C8.54338 4.14001 7.77225 4.94341 6.93973 5.8105Z" fill="white"/>
<path d="M4.58959 22.0998C4.9827 22.0998 5.37688 22.0842 5.76891 22.1032C6.45819 22.1356 6.95254 22.6674 6.95362 23.3535C6.95469 24.0272 6.50666 24.5635 5.82599 24.5948C4.96977 24.6339 4.10924 24.6339 3.25302 24.5948C2.55189 24.5624 2.09524 23.9982 2.12324 23.3021C2.14909 22.6406 2.6359 22.1333 3.30257 22.1032C3.73014 22.0842 4.15986 22.0998 4.58959 22.0998Z" fill="white"/>
<path d="M6.14472 28.8038C5.75161 28.8038 5.35743 28.8149 4.96541 28.8015C4.26321 28.7769 3.7624 28.2763 3.73871 27.5936C3.71502 26.8975 4.17274 26.3365 4.87494 26.3064C5.73115 26.2684 6.59167 26.2695 7.44788 26.3086C8.12639 26.3399 8.57334 26.8807 8.56903 27.5556C8.56472 28.2406 8.0693 28.7691 7.37787 28.8004C6.96754 28.8183 6.55613 28.8026 6.14472 28.8038Z" fill="white"/>
<path d="M3.70471 13.7226C3.70471 14.5784 3.70471 15.3684 3.70471 16.193C2.93358 16.193 2.18615 16.2444 1.44841 16.1762C0.849605 16.1215 0.469427 15.5192 0.51143 14.8868C0.552356 14.27 1.00792 13.7594 1.61535 13.7304C2.2917 13.698 2.97128 13.7226 3.70471 13.7226Z" fill="white"/>
<path d="M3.7024 17.9349C3.7024 18.7941 3.7024 19.5852 3.7024 20.4177C2.97866 20.4177 2.28292 20.4478 1.59041 20.4087C0.964671 20.373 0.510178 19.8154 0.506947 19.174C0.503716 18.5394 0.908667 17.9941 1.52471 17.9472C2.23122 17.8935 2.94527 17.9349 3.7024 17.9349Z" fill="white"/>
</svg>
