<svg width="29" height="26" viewBox="0 0 29 26" fill="none" xmlns="http://www.w3.org/2000/svg">
<path d="M13.9326 14.6309C9.83491 14.6309 5.73727 14.6359 1.64092 14.6275C0.559583 14.6258 -0.0962482 13.7914 0.0221658 12.611C0.105446 11.7765 0.551775 11.167 1.1959 11.0495C1.45224 11.0025 1.71509 11.0159 1.97404 11.0159C9.99496 11.0142 18.0172 11.0142 26.0381 11.0142C26.1682 11.0142 26.2984 11.0125 26.4285 11.0159C27.3732 11.0428 27.9822 11.7295 28.0017 12.7873C28.0212 13.8736 27.3979 14.6242 26.4194 14.6258C22.258 14.6359 18.0953 14.6309 13.9326 14.6309Z" fill="#5D7592"/>
<path d="M13.9704 3.79107C9.85189 3.79107 5.73473 3.79611 1.61626 3.78772C0.512802 3.78436 -0.139126 2.88942 0.040447 1.66372C0.15756 0.86617 0.599986 0.3188 1.22459 0.219736C1.39635 0.192871 1.57202 0.199587 1.74509 0.199587C9.91565 0.199587 18.0875 0.202945 26.2581 0.192871C26.9282 0.192871 27.5203 0.337269 27.8482 1.18519C28.3115 2.38403 27.7077 3.7172 26.6498 3.7726C25.6322 3.82466 24.6133 3.79107 23.5944 3.79107C20.3855 3.79107 17.1779 3.79107 13.9704 3.79107Z" fill="#5D7592"/>
<path d="M14.0666 21.8604C18.185 21.8604 22.3022 21.8554 26.4207 21.8638C27.5085 21.8655 28.1592 22.8041 27.9588 24.0264C27.826 24.8357 27.4252 25.2857 26.8111 25.4184C26.5781 25.4687 26.3361 25.4503 26.098 25.4503C18.0354 25.4519 9.97283 25.4519 1.91027 25.4503C0.640241 25.4503 -0.0181929 24.8139 0.00653087 23.6134C0.0299534 22.4431 0.662363 21.8588 1.90896 21.8588C5.96107 21.8588 10.0132 21.8604 14.0666 21.8604Z" fill="#5D7592"/>
</svg>
