<svg width="14" height="24" viewBox="0 0 14 24" fill="none" xmlns="http://www.w3.org/2000/svg">
<path d="M10.211 11.9325C8.75229 10.585 7.44006 9.41158 6.17361 8.19312C4.32124 6.40745 2.50243 4.59177 0.674472 2.78509C-0.0701401 2.04381 -0.30512 1.22751 0.552404 0.435211C1.3611 -0.312069 2.13623 -0.00595402 2.82286 0.669299C6.24075 4.02456 9.64948 7.38582 13.0674 10.7411C13.9707 11.6264 13.9035 12.4817 13.0277 13.3431C9.64643 16.6623 6.27127 19.9875 2.88695 23.3038C2.16064 24.0151 1.31838 24.3332 0.482215 23.5199C-0.375309 22.6826 0.027514 21.8843 0.747712 21.179C3.80856 18.1839 6.87245 15.1917 10.211 11.9325Z" fill="#3A9C3E"/>
</svg>
