<svg width="16" height="16" viewBox="0 0 16 16" fill="none" xmlns="http://www.w3.org/2000/svg">
<path d="M8.00223 16C3.59136 16.0009 0.000892874 12.4122 1.66348e-07 8.00223C-0.000892541 3.59226 3.59136 0 8.00045 0C12.4131 0 16 3.5869 16 7.99955C16 12.4149 12.4167 15.9991 8.00223 16ZM6.40161 10.1055C5.77314 9.46538 5.20806 8.87441 4.62512 8.30218C4.23858 7.92189 3.77348 7.91118 3.43871 8.24058C3.11823 8.5566 3.1334 9.05206 3.50388 9.42967C4.25375 10.1938 5.00987 10.9517 5.77314 11.7025C6.18468 12.1078 6.61675 12.1114 7.0265 11.7034C8.86012 9.87781 10.6884 8.04776 12.5122 6.21235C12.8782 5.84366 12.8809 5.34196 12.5488 5.02505C12.2337 4.72421 11.7507 4.74206 11.3909 5.08933C10.9732 5.49104 10.5688 5.90615 10.1599 6.31769C8.92529 7.56123 7.69068 8.80567 6.40161 10.1055Z" fill="#3A9C3E"/>
</svg>
