<svg width="14" height="14" viewBox="0 0 14 14" fill="none" xmlns="http://www.w3.org/2000/svg">
<path d="M1.58836 14C1.04752 13.456 0.531971 12.9377 0.0042689 12.4072C1.80279 10.6126 3.60919 8.81016 5.4238 6.99951C3.60656 5.18557 1.80049 3.38345 0 1.58625C0.532299 1.05575 1.04982 0.539357 1.57752 0.0134511C3.37145 1.81131 5.17325 3.61737 6.98688 5.43491C8.81561 3.6049 10.6187 1.80081 12.4182 0C12.9476 0.534764 13.4618 1.05378 13.9856 1.58297C12.1949 3.36836 10.3885 5.1695 8.57294 6.97982C10.3987 8.80393 12.2035 10.6067 13.9997 12.4016C13.4661 12.9357 12.9466 13.4554 12.4232 13.9793C10.6279 12.1844 8.82644 10.3833 7.01085 8.56771C5.19492 10.3872 3.38984 12.1953 1.58836 14Z" fill="#BDC5D7"/>
</svg>
