<svg viewBox="0 0 17 16" fill="none" xmlns="http://www.w3.org/2000/svg">
<path d="M6.67575 8.02982C6.10946 7.45695 5.60432 6.94616 5.07001 6.40527C4.99194 6.4777 4.91762 6.54919 4.84049 6.61692C4.44258 6.96215 3.94308 6.96968 3.62043 6.63668C3.3006 6.3065 3.31001 5.78536 3.67593 5.41662C5.11987 3.96045 6.57322 2.51274 8.0228 1.06128C8.25515 0.828929 8.48562 0.5947 8.72173 0.366115C9.17419 -0.0722408 9.62572 -0.117393 10.0011 0.23442C10.3792 0.589056 10.3594 1.05281 9.94555 1.51751C9.90416 1.5636 9.86277 1.61063 9.84302 1.63227C11.3575 3.13359 12.8654 4.62833 14.4777 6.2256C14.5605 6.11742 14.6885 5.89918 14.8662 5.73268C15.2613 5.363 15.7288 5.37805 16.0731 5.74115C16.393 6.07791 16.4005 6.55296 16.0374 6.91888C14.2275 8.7438 12.4101 10.5612 10.5871 12.3729C10.2315 12.7266 9.73484 12.7238 9.40466 12.4124C9.05755 12.0851 9.05379 11.5988 9.39713 11.1924C9.45734 11.1209 9.52413 11.055 9.58433 10.9911C8.99923 10.4286 8.41789 9.87073 7.77541 9.25364C7.08024 9.9648 6.32206 10.7484 5.55352 11.5216C4.21776 12.8649 2.87823 14.2054 1.53306 15.5393C1.01475 16.0529 0.328054 15.9579 0.0703086 15.3502C-0.111242 14.9212 0.0825374 14.6023 0.380732 14.306C1.76917 12.9232 3.15103 11.5348 4.53759 10.1511C5.24498 9.4446 5.95707 8.74286 6.67575 8.02982Z" fill="#5D7592"/>
<path d="M13.0528 15.9987C12.13 15.9987 11.2063 16.0015 10.2835 15.9977C9.66637 15.9958 9.29669 15.6911 9.2854 15.1859C9.27411 14.6902 9.65979 14.3271 10.2487 14.3252C12.1422 14.3167 14.0349 14.3158 15.9285 14.3261C16.5296 14.329 16.887 14.6808 16.872 15.1981C16.8569 15.6958 16.506 15.9949 15.9162 15.9987C14.9615 16.0015 14.0076 15.9987 13.0528 15.9987Z" fill="#5D7592"/>
</svg>
