<svg viewBox="0 0 154 49" fill="none" xmlns="http://www.w3.org/2000/svg">
<path d="M133.217 26.5406C133.127 26.8819 132.863 26.9534 132.364 26.9534H116.394C116.039 26.9534 115.829 26.866 115.767 26.6279C115.763 26.6001 117.499 19.4125 121 4.86672H108.745C108.337 4.86672 108.089 4.73972 108.027 4.50556L108.906 0.695462C108.992 0.35811 109.306 0.159668 109.833 0.159668H152.301C152.684 0.159668 153.051 0.366048 152.998 0.60021L152.086 4.38252C151.996 4.69606 151.723 4.86275 151.191 4.86275H138.429L133.217 26.5406Z" fill="#3A9C3E"/>
<path d="M35.3312 12.4869C33.7478 13.8443 31.6614 14.3443 28.9729 14.3443H21.4146L23.6949 4.86672H28.3296C30.7666 4.86672 35.2611 5.17629 36.7043 8.08942C37.5744 9.85159 36.6178 11.3796 35.3312 12.4869ZM48.8355 14.3443C53.1115 11.1097 53.5527 5.31917 47.1078 2.10043C44.1595 0.627992 39.3392 0.159668 33.5128 0.159668H11.0195C10.5741 0.159668 10.0752 0.413674 9.98862 0.751026L3.84058 26.3541C3.88181 26.5922 3.9849 26.9653 4.33126 26.9653L17.5304 26.9534C18.0252 26.9534 18.3798 26.9534 18.5035 26.4453L20.223 19.3014H24.1897L34.5354 26.9494L51.7095 26.9573L40.1021 17.8052C43.0297 17.1424 46.3697 16.2097 48.8355 14.3443Z" fill="#3A9C3E"/>
<path d="M87.4185 12.4869C85.8351 13.8443 83.7486 14.3443 81.0601 14.3443H73.4977L75.778 4.86672H80.4169C82.8538 4.86672 87.3484 5.17629 88.7874 8.08942C89.6575 9.85159 88.705 11.3796 87.4185 12.4869ZM100.919 14.3443C105.199 11.1097 105.64 5.31917 99.1909 2.10043C96.2426 0.627992 91.4223 0.159668 85.5959 0.159668H63.1026C62.6572 0.159668 62.1583 0.413674 62.0717 0.751026L55.9278 26.3541C55.969 26.5922 56.0721 26.9653 56.4185 26.9653L69.6176 26.9534C70.1124 26.9534 70.467 26.9534 70.5907 26.4453L72.3102 19.3014H76.2769L86.6226 26.9494L103.797 26.9573L92.1893 17.8012C95.1169 17.1424 98.4528 16.2097 100.919 14.3443Z" fill="#3A9C3E"/>
<path d="M11.7163 33.7562C12.8008 33.7562 13.3575 34.034 13.7739 35.185L17.184 44.6825C17.2582 44.9404 17.1675 45.119 16.8047 45.119H14.0791C13.8069 45.119 13.7162 45.0555 13.6626 44.8928L13.0111 42.9917H5.1642L3.64678 44.8928C3.50246 45.0555 3.35814 45.119 3.10661 45.119H0.290306C-0.0519387 45.119 -0.0725559 44.9404 0.129492 44.6825L7.94752 35.185C8.88766 34.0499 9.60927 33.7562 10.4587 33.7562H11.7163ZM6.97027 40.7731H12.24L10.8133 36.6019C10.7968 36.5225 10.7391 36.4868 10.6525 36.4868H10.5453C10.4546 36.4868 10.3845 36.5185 10.3267 36.6019L6.97027 40.7731Z" fill="#3A9C3E"/>
<path d="M27.5668 33.7561C27.9297 33.7561 28.0905 33.8196 28.1812 34.0339L30.6883 39.5387L35.5787 34.1649C35.7972 33.9228 35.958 33.7601 36.5518 33.7601H38.9351C39.331 33.7601 39.2403 34.0696 39.0795 34.2641L30.4038 43.4996C29.142 44.8649 27.7854 45.1229 26.4494 45.1229H24.6062C24.2805 45.1229 24.1568 44.976 24.2269 44.7022L24.6763 42.8011C24.7299 42.5233 24.9278 42.3804 25.2371 42.3804H27.0432C27.7813 42.3804 28.1441 42.2653 28.4328 42.0073L24.6227 34.2482C24.5155 34.0379 24.6062 33.7601 25.0021 33.7601H27.5668V33.7561Z" fill="#3A9C3E"/>
<path d="M47.8253 33.7561C48.1304 33.7561 48.2417 33.9029 48.1881 34.1768L47.215 38.2687H48.3902C49.2561 38.2687 49.5654 38.1695 50.1055 37.6694L53.9857 33.9823C54.1836 33.8196 54.2743 33.7561 54.6537 33.7561H57.3628C57.705 33.7561 57.6885 34.0339 57.5236 34.1927L53.0662 38.2687C52.5961 38.7053 52.2167 39.0307 51.858 39.2926C52.2538 39.5705 52.5631 39.9435 52.8888 40.4436L55.5237 44.6307C55.5938 44.7617 55.5608 45.1189 55.1444 45.1189H52.3817C52.0394 45.1189 51.9487 45.0554 51.858 44.8927L49.5654 41.0786C49.2767 40.6063 48.9881 40.4793 48.1015 40.4793H46.6955L45.7017 44.7022C45.6275 44.98 45.4502 45.1229 45.1409 45.1229H42.7947C42.4895 45.1229 42.3617 44.976 42.4318 44.7022L44.9059 34.1808C44.9801 33.903 45.178 33.7601 45.4832 33.7601H47.8253V33.7561Z" fill="#3A9C3E"/>
<path d="M66.7972 33.7559C67.1023 33.7559 67.2301 33.9028 67.16 34.1766L65.3004 42.0984C65.2467 42.3088 65.3168 42.3763 65.5354 42.3763H72.772L74.7018 34.1766C74.776 33.8988 74.9533 33.7559 75.2791 33.7559H77.6253C77.9304 33.7559 78.0582 33.9028 78.0046 34.1766L76.0543 42.3763H78.7799C79.085 42.3763 79.2128 42.5231 79.1592 42.797L77.984 47.7342C77.9139 48.012 77.7325 48.1549 77.4232 48.1549H75.4357C75.11 48.1549 74.9863 48.0081 75.0564 47.7342L75.6708 45.1187H63.0902C62.0263 45.1187 61.5563 44.8092 61.5563 44.1265C61.5563 43.9797 61.5934 43.817 61.6305 43.6384L63.8695 34.1726C63.9437 33.8948 64.121 33.752 64.4303 33.752H66.7972V33.7559Z" fill="#3A9C3E"/>
<path d="M90.0657 33.7561C90.3708 33.7561 90.4987 33.9029 90.4286 34.1768L88.5524 42.1502C88.5153 42.2653 88.5524 42.3129 88.6431 42.3129H88.7874C88.8946 42.3129 88.9689 42.2812 89.0225 42.1978L94.9602 34.8753C95.6983 33.9665 96.1354 33.7561 97.6487 33.7561H99.5248C100.498 33.7561 101.005 34.0141 101.005 34.8594C101.005 35.0857 100.968 35.3794 100.898 35.7048L98.7661 44.6982C98.7125 44.9919 98.5146 45.1189 98.2053 45.1189H95.8756C95.5499 45.1189 95.4426 44.9879 95.5127 44.6982L97.3724 36.7248C97.4095 36.6097 97.3724 36.5621 97.2817 36.5621H97.1374C97.0302 36.5621 96.9559 36.5938 96.9023 36.6772L90.944 43.9997C90.2059 44.9244 89.7523 45.1189 88.2555 45.1189H86.4123C85.4392 45.1189 84.9155 44.8609 84.9155 43.9997C84.9155 43.7735 84.9526 43.4957 85.0227 43.1702L87.1339 34.1768C87.2082 33.899 87.4061 33.7561 87.7112 33.7561H90.0657Z" fill="#3A9C3E"/>
<path d="M118.678 33.7561C121.676 33.7561 122.975 34.534 122.975 36.4827C122.975 36.9391 122.921 37.459 122.125 40.8326C121.404 43.9481 119.705 45.1189 116.006 45.1189H110.374C107.376 45.1189 106.077 44.341 106.077 42.3923C106.077 41.9359 106.131 41.4199 106.926 38.0425C107.648 34.9269 109.347 33.7561 113.046 33.7561H118.678ZM109.471 41.5033C109.471 42.2494 109.92 42.4598 111.132 42.4598H116.509C118.064 42.4598 118.55 42.0708 118.893 40.6103C119.544 37.9155 119.577 37.6218 119.577 37.3797C119.577 36.6335 119.128 36.439 117.936 36.439H112.538C110.988 36.439 110.497 36.8121 110.155 38.2727C109.508 40.9675 109.471 41.2572 109.471 41.5033Z" fill="#3A9C3E"/>
<path d="M133.213 33.7561C133.518 33.7561 133.63 33.9029 133.576 34.1768L132.62 38.1536H140.182L141.122 34.1768C141.196 33.899 141.394 33.7561 141.699 33.7561H144.046C144.355 33.7561 144.462 33.9029 144.408 34.1768L141.918 44.6982C141.864 44.976 141.666 45.1189 141.357 45.1189H139.011C138.706 45.1189 138.578 44.9721 138.648 44.6982L139.605 40.6381H132.042L131.086 44.6982C131.016 44.976 130.834 45.1189 130.525 45.1189H128.179C127.869 45.1189 127.746 44.9721 127.816 44.6982L130.29 34.1768C130.364 33.899 130.562 33.7561 130.867 33.7561H133.213Z" fill="#3A9C3E"/>
</svg>
