<svg viewBox="0 0 12 16" fill="none" xmlns="http://www.w3.org/2000/svg">
<path d="M5.89807 16C3.89004 13.5321 2.03022 11.0527 0.860579 8.13127C0.0587945 6.13127 0.0329017 4.16788 1.34629 2.36967C2.76861 0.421462 4.72843 -0.316037 7.09718 0.122355C9.18467 0.508962 10.9257 2.30092 11.3784 4.42502C11.7079 5.97413 11.3007 7.39734 10.6784 8.78484C9.60521 11.175 8.09628 13.2875 6.46236 15.3179C6.28646 15.5366 6.10521 15.7509 5.89807 16ZM7.90432 5.60359C7.907 4.50002 6.98378 3.57324 5.89361 3.58574C4.81325 3.59824 3.90432 4.50985 3.89807 5.58395C3.89272 6.68752 4.80432 7.59109 5.91861 7.58573C7.01682 7.58037 7.90164 6.69734 7.90432 5.60359Z" fill="#5D7592"/>
</svg>
