<svg width="11" height="16" viewBox="0 0 11 16" fill="none" xmlns="http://www.w3.org/2000/svg">
<path d="M6.04194 -0.000305176C6.16118 0.0256645 6.2799 0.0564042 6.40021 0.077074C9.47206 0.604948 11.6578 3.70807 10.7313 7.03219C10.2814 8.64602 9.57011 10.1443 8.6935 11.5562C7.81901 12.9644 6.86343 14.3223 5.93117 15.6939C5.65398 16.102 5.36036 16.0972 5.0694 15.7108C3.43595 13.541 1.93289 11.2907 0.841631 8.79018C0.473285 7.94643 0.179138 7.07883 0.0461095 6.16247C0.0397496 6.1206 0.0158998 6.08138 0 6.04163C0 5.67063 0 5.29964 0 4.92864C0.0217298 4.83483 0.0482295 4.74208 0.0635993 4.64722C0.451555 2.29722 2.20478 0.508489 4.54205 0.078134C4.6719 0.0548142 4.80016 0.0261945 4.92895 -0.000305176C5.29994 -0.000305176 5.67094 -0.000305176 6.04194 -0.000305176ZM7.56143 8.47006C7.62344 8.47006 7.68492 8.47006 7.74693 8.47006C8.25201 8.47006 8.26579 8.44886 8.05114 7.98671C7.28689 6.3379 6.52423 4.68855 5.75256 3.04292C5.69532 2.92155 5.5713 2.83092 5.47855 2.72652C5.38368 2.8288 5.25542 2.91519 5.19924 3.03497C4.4387 4.65623 3.68876 6.28225 2.93511 7.90721C2.67488 8.46794 2.67382 8.469 3.29762 8.46741C4.10799 8.46529 3.96277 8.54055 4.28235 7.83142C4.35019 7.68143 4.42969 7.62048 4.5977 7.62366C5.14465 7.63373 5.69214 7.63956 6.23856 7.62207C6.48289 7.61412 6.64666 7.66924 6.70655 7.92152C6.8152 8.37784 7.10404 8.55539 7.56143 8.47006Z" fill="#5D7592"/>
<path d="M5.47052 5.18134C5.68729 5.65727 5.87332 6.0659 6.07366 6.50632C5.65655 6.50632 5.28449 6.50632 4.87109 6.50632C5.06825 6.07067 5.25428 5.66045 5.47052 5.18134Z" fill="#5D7592"/>
</svg>
