<svg width="11" height="16" viewBox="0 0 11 16" fill="none" xmlns="http://www.w3.org/2000/svg">
<path d="M10.9528 5.88704C10.8959 6.20055 10.8523 6.51745 10.78 6.82755C10.4884 8.07661 9.96316 9.23477 9.37017 10.3636C8.36876 12.2708 7.17814 14.0569 5.87961 15.7729C5.65701 16.0669 5.34598 16.0771 5.13049 15.7939C3.58184 13.7604 2.17047 11.6404 1.07599 9.32288C0.641607 8.4031 0.278947 7.45641 0.0918976 6.45067C-0.541597 3.04575 2.18531 -0.118639 5.64835 0.00348431C8.38855 0.100255 10.6164 2.17048 10.9216 4.90264C10.9272 4.95303 10.9423 5.0025 10.9528 5.05259C10.9528 5.33053 10.9528 5.60879 10.9528 5.88704ZM6.38944 5.48234C6.55639 5.34568 6.73076 5.22511 6.87824 5.07763C7.42393 4.5307 7.42022 3.76983 6.8736 3.21981C6.53011 2.87415 6.10531 2.70566 5.62269 2.69824C4.99445 2.68865 4.36621 2.69329 3.73797 2.69422C3.56082 2.69453 3.52186 2.73503 3.52155 2.91713C3.52062 4.65777 3.52062 6.39811 3.52155 8.13875C3.52155 8.31591 3.56514 8.35734 3.7423 8.35765C4.40671 8.35857 5.07082 8.36321 5.73523 8.35579C6.12602 8.35146 6.48219 8.22934 6.80404 8.00303C7.48762 7.52195 7.81843 6.34215 6.73231 5.67403C6.61977 5.60539 6.50136 5.54479 6.38944 5.48234Z" fill="#5D7592"/>
<path d="M4.78516 6.03131C5.06527 6.04399 5.33981 6.03007 5.60385 6.07552C5.92322 6.13055 6.12047 6.40602 6.08801 6.67778C6.0506 6.99066 5.80635 7.19718 5.46657 7.20027C5.2418 7.20244 5.01673 7.20058 4.78516 7.20058C4.78516 6.80701 4.78516 6.43447 4.78516 6.03131Z" fill="#5D7592"/>
<path d="M4.77764 4.98842C4.77764 4.62669 4.77579 4.28351 4.78135 3.94063C4.78166 3.9125 4.83329 3.86148 4.86174 3.86086C5.07197 3.85685 5.28407 3.84788 5.49276 3.86921C5.78339 3.8992 5.97662 4.13418 5.97167 4.418C5.96673 4.71017 5.74969 4.96493 5.46494 4.98533C5.24573 5.0011 5.02436 4.98842 4.77764 4.98842Z" fill="#5D7592"/>
</svg>
