<svg viewBox="0 0 24 25" fill="none" xmlns="http://www.w3.org/2000/svg">
<path d="M12.1572 19.9083C11.7299 19.869 11.3587 19.8083 10.9879 19.8103C10.7486 19.8113 10.5061 19.8914 10.2733 19.9654C10.209 19.9858 10.1241 20.1241 10.1357 20.1889C10.1511 20.2726 10.2453 20.3844 10.3218 20.4017C10.7393 20.4971 11.1591 20.6033 11.5826 20.6375C12.3321 20.6977 13.0891 20.7758 13.8358 20.7247C14.8311 20.6563 15.7341 20.1976 16.632 19.7399C18.4528 18.8117 20.283 17.9044 22.117 17.0073C22.7439 16.7006 23.3852 16.9741 23.6809 17.6166C23.9668 18.2366 23.7644 18.952 23.1935 19.3383C21.4635 20.5089 19.7588 21.7336 17.9081 22.6658C16.7126 23.268 15.478 23.7844 14.2421 24.2834C12.9053 24.8238 11.5527 24.8259 10.1759 24.3656C8.38902 23.7681 6.58446 23.2318 4.78177 22.6919C4.05603 22.4745 3.34288 22.5327 2.65585 22.9261C2.42265 23.0598 2.14326 23.1297 1.87881 23.1588C1.38161 23.2139 1.02014 22.9669 0.878348 22.4439C0.579376 21.3386 0.290665 20.2282 0.0499957 19.1066C-0.0325597 18.7229 0.0024214 18.2922 0.0541934 17.8942C0.138148 17.2507 0.515477 16.8348 1.08357 16.6838C1.61622 16.5424 2.16752 16.4858 2.70436 16.3608C3.51452 16.1725 4.33075 15.9974 5.12505 15.7449C6.77196 15.2203 8.38062 15.3897 9.97716 15.9678C10.1735 16.0388 10.3512 16.1709 10.5406 16.2674C11.167 16.5853 11.8396 16.6424 12.5159 16.6899C13.042 16.7272 13.5709 16.7598 14.0909 16.8481C14.3512 16.892 14.6124 17.0226 14.8423 17.1711C15.4081 17.536 15.5298 18.2248 15.1544 18.8188C14.8097 19.3648 14.3041 19.6337 13.7257 19.7276C13.1889 19.8154 12.646 19.8542 12.1572 19.9083Z" fill="white"/>
<path d="M9.60869 11.3726C9.68378 11.1823 9.72902 10.9679 9.83816 10.8046C11.9188 7.70261 14.006 4.60517 16.0951 1.50976C16.4179 1.03162 16.9594 0.941813 17.3675 1.27809C17.7663 1.60672 17.8404 2.19508 17.527 2.66148C15.4463 5.75331 13.3633 8.8431 11.2789 11.9319C11.0154 12.3222 10.6371 12.46 10.2551 12.3248C9.89273 12.1962 9.6516 11.8242 9.60869 11.3726Z" fill="white"/>
<path d="M17.7112 6.31631C18.5242 6.33009 19.1832 6.70004 19.686 7.38587C20.5111 8.51156 20.6328 10.4001 19.7681 11.6656C18.6515 13.2991 16.6044 13.2317 15.5923 11.5207C14.7276 10.0593 14.985 8.01097 16.1702 6.93478C16.6161 6.52961 17.1254 6.30967 17.7112 6.31631ZM18.7793 9.6842C18.7845 9.24281 18.7052 8.82386 18.465 8.45951C18.1179 7.93341 17.4999 7.86911 17.0942 8.30796C16.5349 8.91316 16.5056 10.1577 17.0354 10.7859C17.4514 11.2789 18.069 11.2544 18.4472 10.7267C18.6655 10.4221 18.7588 10.0679 18.7793 9.6842Z" fill="white"/>
<path d="M12.6189 3.44585C12.5975 4.47561 12.2938 5.36759 11.5737 6.05086C10.4786 7.0893 8.86336 6.87549 7.99676 5.60742C7.37036 4.69095 7.10731 2.76054 7.79807 1.57514C8.69312 0.0391815 10.4529 -0.300669 11.6404 0.893911C12.3181 1.57616 12.6031 2.45641 12.6189 3.44585ZM11.0676 3.40452C11.0303 2.90597 10.8941 2.45488 10.5355 2.11758C10.1772 1.78079 9.74908 1.7915 9.39833 2.13595C8.75608 2.76615 8.73696 4.05564 9.36102 4.70881C9.7752 5.14255 10.3246 5.1053 10.6842 4.61441C10.9422 4.2618 11.0322 3.84388 11.0676 3.40452Z" fill="white"/>
<path d="M15.5709 19.3388C15.8885 18.7943 16.0807 18.2263 15.875 17.5655C16.3195 17.3624 16.7514 17.1552 17.1902 16.9675C18.1291 16.5654 19.069 16.1648 20.0139 15.78C20.5666 15.555 21.0647 15.7555 21.3945 16.2883C21.4938 16.449 21.4794 16.5449 21.3063 16.6133C19.4127 17.3634 17.6086 18.3335 15.8064 19.3071C15.7495 19.3378 15.6865 19.3556 15.6259 19.3791C15.6082 19.3658 15.5895 19.352 15.5709 19.3388Z" fill="white"/>
</svg>
