<svg viewBox="0 0 17 14" fill="none" xmlns="http://www.w3.org/2000/svg">
<path d="M13.8126 13.3097C13.4115 13.3097 13.0096 13.313 12.6084 13.3089C12.1101 13.3039 11.8768 13.1129 11.7663 12.6312C11.6127 11.9618 11.4275 11.8115 10.7473 11.8107C9.43185 11.809 8.11637 11.809 6.80172 11.8107C6.15062 11.8115 5.943 11.9826 5.8093 12.6121C5.70383 13.112 5.46631 13.3064 4.94145 13.3089C4.09685 13.3122 3.25225 13.3005 2.40766 13.3138C2.04224 13.3196 1.81635 13.1569 1.64112 12.8537C-1.10029 8.10673 1.79642 1.82251 7.18291 0.834237C11.6401 0.0170461 15.682 2.61063 16.7641 7.04206C17.2566 9.05597 16.9302 10.9976 15.9445 12.8222C15.7692 13.1461 15.4968 13.3313 15.0999 13.3147C14.6713 13.2956 14.242 13.3097 13.8126 13.3097ZM8.77909 10.4022C9.08803 10.2701 9.4551 10.2054 9.69594 9.99524C11.0098 8.855 12.297 7.68236 13.5793 6.5064C13.6748 6.4192 13.7445 6.15926 13.6881 6.08535C13.6042 5.97573 13.3725 5.88022 13.2454 5.91842C11.5579 6.42917 9.872 6.94407 8.19942 7.50215C7.52756 7.72638 7.18872 8.45554 7.32907 9.15314C7.46693 9.82998 8.04412 10.3075 8.77909 10.4022ZM12.728 3.82479C12.7247 3.4245 12.39 3.08649 11.9939 3.08317C11.6002 3.08068 11.2556 3.41869 11.2481 3.81482C11.2398 4.2284 11.5961 4.58634 12.0055 4.57637C12.3975 4.5689 12.7313 4.22176 12.728 3.82479ZM2.8312 9.57668C3.24561 9.57751 3.57282 9.25778 3.57448 8.85001C3.57614 8.45138 3.23398 8.11089 2.83286 8.11006C2.4251 8.10923 2.09789 8.4381 2.09872 8.84918C2.09872 9.27024 2.40766 9.57668 2.8312 9.57668ZM3.56866 6.67084C3.98058 6.67831 4.31942 6.37104 4.33852 5.9749C4.35845 5.56547 4.00882 5.20754 3.59026 5.2067C3.18415 5.20587 2.85196 5.52976 2.84615 5.93337C2.8395 6.33449 3.16256 6.66336 3.56866 6.67084ZM14.7444 9.57751C15.1696 9.57502 15.4719 9.26941 15.4694 8.84503C15.4678 8.42979 15.143 8.10674 14.7328 8.11089C14.3317 8.11504 13.9912 8.45969 13.9962 8.85666C14.0011 9.26442 14.3283 9.58 14.7444 9.57751ZM8.06072 2.8797C8.05408 3.30076 8.35887 3.6263 8.76912 3.63627C9.18021 3.64624 9.50161 3.33148 9.50908 2.91292C9.51655 2.48523 9.22007 2.16965 8.80151 2.16051C8.38544 2.15054 8.06737 2.45865 8.06072 2.8797ZM5.53026 3.10726C5.13993 3.1139 4.78781 3.47682 4.79362 3.86714C4.79943 4.26826 5.1391 4.59298 5.54936 4.58966C5.96626 4.58634 6.27769 4.2666 6.27353 3.84887C6.26855 3.44277 5.92556 3.10061 5.53026 3.10726Z" fill="#5D7592"/>
</svg>
