<svg width="123" height="118" viewBox="0 0 123 118" fill="none" xmlns="http://www.w3.org/2000/svg">
<path fill-rule="evenodd" clip-rule="evenodd" d="M61.441 11.351L74.967 43.023C75.472 44.208 76.607 44.932 77.815 44.97L111.944 48.032L85.989 70.696C85.073 71.497 84.725 72.706 84.977 73.815L84.974 73.817L92.647 107.395L63.084 89.721C62.016 89.082 60.728 89.137 59.742 89.754L30.236 107.395L37.91 73.817C38.196 72.565 37.707 71.317 36.758 70.577L10.939 48.032L45.245 44.954C46.463 44.848 47.462 44.073 47.91 43.022L47.914 43.023L61.441 11.351Z" fill="#646464"/>
<g clip-path="url(#clip0_154_1253)">
<path d="M64.395 1.96898L80.108 38.759L119.961 42.334C121.72 42.486 123.021 44.035 122.868 45.793C122.795 46.65 122.389 47.397 121.789 47.922L121.791 47.923L91.641 74.25L100.558 113.271C100.953 114.994 99.875 116.71 98.152 117.105C97.269 117.308 96.389 117.123 95.686 116.664L61.441 96.191L27.087 116.73C25.571 117.636 23.607 117.142 22.7 115.626C22.259 114.89 22.15 114.046 22.327 113.271H22.324L31.242 74.25L1.09201 47.924C-0.236987 46.761 -0.370987 44.741 0.791013 43.412C1.38201 42.736 2.19601 42.37 3.02601 42.325L42.774 38.759L58.495 1.94898C59.187 0.321978 61.067 -0.435022 62.694 0.256978C63.494 0.596978 64.084 1.22498 64.395 1.96898ZM74.967 43.023L61.441 11.351L47.914 43.023L47.91 43.022C47.462 44.073 46.463 44.848 45.245 44.954L10.939 48.032L36.758 70.577C37.707 71.317 38.196 72.565 37.91 73.817L30.236 107.395L59.742 89.754C60.728 89.137 62.016 89.082 63.084 89.721L92.647 107.395L84.974 73.817L84.977 73.815C84.725 72.706 85.073 71.497 85.989 70.696L111.944 48.032L77.815 44.97C76.607 44.932 75.472 44.208 74.967 43.023Z" fill="black"/>
</g>
<defs>
<clipPath id="clip0_154_1253">
<rect width="122.879" height="117.188" fill="white"/>
</clipPath>
</defs>
</svg>
