<svg viewBox="0 0 19 18" fill="none" xmlns="http://www.w3.org/2000/svg">
<path d="M4.76576 14.6222L4.76562 14.6228C4.61816 15.2598 4.47315 15.897 4.33863 16.4882C4.30124 16.6525 4.26466 16.8132 4.22907 16.9694C4.25015 16.9615 4.27644 16.9494 4.30756 16.9307L4.30977 16.9294L4.48268 16.8263C5.78665 16.0493 7.07761 15.28 8.3491 14.4798L8.34918 14.4798C8.60964 14.3159 8.9525 14.1501 9.3726 14.1412C9.8016 14.1321 10.1595 14.2891 10.4462 14.4702L10.4463 14.4702C11.301 15.0103 12.1576 15.5247 13.0256 16.0458C13.5096 16.3363 13.997 16.6289 14.4896 16.9293C14.531 16.9546 14.5639 16.9713 14.5888 16.9823C14.586 16.9595 14.5811 16.9309 14.5729 16.896L14.5728 16.8957C14.5001 16.5844 14.428 16.2739 14.356 15.9641C14.0621 14.6991 13.7709 13.4456 13.4549 12.1961C13.3804 11.9024 13.3398 11.5396 13.4697 11.1561C13.5977 10.7781 13.8448 10.5192 14.0588 10.3388L4.76576 14.6222ZM4.76576 14.6222C4.81179 14.4229 4.85655 14.226 4.90087 14.031C5.05121 13.3697 5.19643 12.7309 5.36854 12.0948L5.36883 12.0937M4.76576 14.6222L5.36883 12.0937M5.36883 12.0937C5.43283 11.8561 5.48099 11.5326 5.37046 11.1804C5.26006 10.8285 5.03691 10.5938 4.85881 10.4419L4.8587 10.4418M5.36883 12.0937L4.8587 10.4418M4.8587 10.4418C4.30588 9.97044 3.71962 9.46272 3.12982 8.95194C2.48264 8.39146 1.83119 7.8273 1.215 7.3034L1.21444 7.30293M4.8587 10.4418L1.21444 7.30293M1.21444 7.30293C1.13414 7.23476 1.07888 7.18124 1.04062 7.13787C1.037 7.13377 1.03363 7.12987 1.03049 7.12615M1.21444 7.30293L0.99817 7.09776C0.99851 7.0998 0.998807 7.10186 0.999057 7.10392C0.997824 7.10547 0.996488 7.10711 0.995042 7.10881C0.974726 7.13271 0.953936 7.14549 0.947745 7.14865L0.947607 7.14872C0.947614 7.14874 0.967067 7.13936 1.01945 7.12839C1.02305 7.12764 1.02673 7.12689 1.03049 7.12615M6.03566 6.72236L6.03534 6.72238C5.12594 6.78253 4.24317 6.85636 3.35072 6.93101C2.66317 6.98851 1.96987 7.0465 1.25425 7.09908M6.03566 6.72236L0.0547336 6.79188L0.997778 7.09551C0.997047 7.09151 0.996155 7.0876 0.995131 7.08388C0.992929 7.07588 0.990903 7.07159 0.990904 7.07159L0.990912 7.07161C0.991437 7.07269 0.995335 7.08033 1.00578 7.09481C1.00972 7.08904 1.01138 7.08564 1.0114 7.08564C1.01141 7.08565 1.00981 7.08901 1.00717 7.09673C1.01295 7.10464 1.02057 7.11443 1.03049 7.12615M6.03566 6.72236C6.36408 6.70054 6.70943 6.59829 7.00083 6.33552C7.25873 6.10295 7.38323 5.82027 7.44655 5.66906L6.52414 5.28284L7.44617 5.66996C8.08536 4.14752 8.72492 2.62926 9.37874 1.1184C9.38306 1.10847 9.38735 1.09922 9.39159 1.09061C9.42652 1.1452 9.46093 1.21015 9.49128 1.27964L9.49182 1.28087M6.03566 6.72236L9.49182 1.28087M1.25425 7.09908C1.25398 7.0991 1.2537 7.09912 1.25343 7.09914L1.18017 6.10182L1.2548 7.09903C1.25462 7.09905 1.25443 7.09906 1.25425 7.09908ZM1.25425 7.09908C1.15642 7.10641 1.08483 7.11549 1.03049 7.12615M9.49182 1.28087C10.1163 2.70541 10.7236 4.13756 11.3096 5.57739M9.49182 1.28087L11.3096 5.57739M11.3096 5.57739C11.4297 5.87264 11.6221 6.19721 11.9708 6.4298M11.3096 5.57739L11.9708 6.4298M11.9708 6.4298C12.3063 6.65363 12.6667 6.71061 12.9485 6.72793M11.9708 6.4298L12.9485 6.72793M12.9485 6.72793C14.5511 6.82744 16.1443 6.95307 17.7257 7.13563M12.9485 6.72793L17.7257 7.13563M17.7257 7.13563C17.7327 7.1401 17.7411 7.14592 17.7509 7.15328M17.7257 7.13563L17.7509 7.15328M17.7509 7.15328C17.2913 7.54883 16.8387 7.94235 16.3885 8.33389C15.6134 9.00788 14.845 9.67602 14.0591 10.3386L17.7509 7.15328Z" stroke="#C3D3EA" stroke-width="2"/>
</svg>
