<svg viewBox="0 0 22 16" fill="none" xmlns="http://www.w3.org/2000/svg">
<path d="M18.7896 7.48735C18.135 7.48535 17.4944 7.38304 16.8642 7.21279C16.7399 7.17922 16.6859 7.206 16.6168 7.3191C16.4757 7.54969 16.3291 7.78628 16.14 7.97611C13.6543 10.4743 11.1609 12.9644 8.66916 15.4566C7.94661 16.1791 7.00506 16.1803 6.2861 15.4618C4.65118 13.828 3.01705 12.1931 1.37932 10.5622C0.89176 10.0774 0.719515 9.50753 0.940916 8.85491C1.01725 8.63032 1.16112 8.40772 1.32897 8.23907C3.87188 5.68617 6.42198 3.14046 8.97568 0.598744C9.37732 0.198704 9.87727 -0.00471282 10.4484 8.28606e-05C11.953 0.0124717 13.4572 0.0292566 14.9619 0.0480397C15.5558 0.0556329 16.0805 0.243863 16.4258 0.74741C16.5776 0.968811 16.6668 1.24217 16.7423 1.50393C16.7906 1.67178 16.8262 1.79047 17.0152 1.85961C18.0739 2.24766 19.0634 2.76679 19.9294 3.49694C20.4206 3.91096 20.8422 4.38294 21.1255 4.97361C21.5683 5.89678 21.1451 6.93424 20.178 7.27354C19.7264 7.4318 19.2636 7.48974 18.7896 7.48735ZM14.1218 4.49404C15.3979 5.37445 16.7815 5.96192 18.3245 6.13296C18.8008 6.18572 19.2808 6.19771 19.7376 6.00428C19.9714 5.90517 20.0281 5.79926 19.9186 5.56947C19.8199 5.36286 19.698 5.15904 19.5498 4.9856C19.0226 4.36935 18.3404 3.95452 17.6379 3.57367C17.3733 3.4302 17.0912 3.3195 16.8134 3.19201C16.8134 3.80706 16.8134 4.39932 16.8134 5.00598C16.0261 4.74262 15.3016 4.39493 14.6202 3.95333C14.4839 3.865 14.4212 3.77748 14.4272 3.60604C14.4436 3.13246 14.213 2.77159 13.8233 2.5326C13.3577 2.24726 12.8634 2.25965 12.4162 2.56737C11.955 2.88509 11.7796 3.35187 11.8795 3.90697C11.9782 4.45687 12.5029 4.89048 13.0564 4.91966C13.4844 4.94204 13.8301 4.78538 14.1218 4.49404Z" fill="#5D7592"/>
</svg>
