<svg width="20" height="14" viewBox="0 0 20 14" fill="none" xmlns="http://www.w3.org/2000/svg">
<path d="M0.000976563 0.634276C0.0202912 0.566184 0.0337132 0.4958 0.0600662 0.430654C0.162368 0.176944 0.360261 0.0466525 0.62461 0.00966009C0.685173 0.00114855 0.747045 0.000166452 0.808263 0.000166452C3.9901 -0.000324598 7.17178 -0.000160915 10.3536 -0.000488281C10.515 -0.000488281 10.673 0.0160437 10.8155 0.0980491C11.0411 0.227686 11.1395 0.434091 11.1596 0.685018C11.1616 0.709407 11.1606 0.734123 11.1606 0.758675C11.1606 4.22091 11.1604 7.68314 11.1611 11.1454C11.1611 11.3195 11.1265 11.4832 11.0224 11.6255C10.8871 11.8102 10.6956 11.9013 10.4731 11.9024C9.47055 11.9075 8.46799 11.9047 7.46526 11.9047C7.45937 11.9047 7.45332 11.9029 7.44415 11.9014C7.33072 11.1267 6.95179 10.5126 6.30999 10.0659C5.81665 9.72247 5.26389 9.57171 4.66448 9.61034C3.46337 9.6876 2.39632 10.627 2.23083 11.9008C2.2197 11.9021 2.20776 11.9047 2.19597 11.9047C1.6987 11.9049 1.20143 11.9093 0.704324 11.9029C0.447505 11.8996 0.234062 11.7955 0.103442 11.5647C0.0600662 11.4883 0.0425521 11.3971 0.0135802 11.3127C0.00834231 11.2976 0.00506865 11.2819 0.000976562 11.2663C0.000976563 7.72242 0.000976563 4.17835 0.000976563 0.634276Z" fill="#3A9C3E"/>
<path d="M12.6481 11.9063C12.3703 11.8965 12.1626 11.7794 12.0184 11.5523C11.9387 11.4265 11.9053 11.2879 11.9053 11.1388C11.9059 8.6711 11.9059 6.2034 11.9056 3.73554C11.9056 3.50425 11.9683 3.29932 12.15 3.14448C12.2795 3.03399 12.4338 2.98014 12.6014 2.97981C13.7534 2.97768 14.9052 2.97719 16.0572 2.97981C16.3375 2.98047 16.5617 3.11305 16.7529 3.30865C16.9735 3.53454 17.1621 3.78645 17.3472 4.04146C17.7998 4.66494 18.2558 5.28595 18.7082 5.90975C18.9565 6.25218 19.1649 6.61736 19.2779 7.02771C19.3181 7.17372 19.3427 7.32905 19.3432 7.4803C19.3484 8.69368 19.3459 9.90707 19.3461 11.1205C19.3461 11.3331 19.3027 11.5303 19.15 11.6907C19.022 11.8251 18.8606 11.8945 18.6802 11.9007C18.4085 11.9102 18.1363 11.9032 17.8591 11.9032C17.7543 11.1146 17.3854 10.4847 16.7216 10.0405C16.2296 9.7113 15.6809 9.57692 15.0922 9.60966C14.6836 9.63241 14.3022 9.75206 13.9484 9.95798C13.5925 10.1649 13.2997 10.4395 13.0695 10.781C12.8409 11.12 12.7008 11.493 12.6481 11.9063ZM18.0997 7.43774C18.0781 7.35426 18.0714 7.27405 18.0373 7.20793C17.9573 7.05226 17.8756 6.89529 17.7744 6.75321C17.2724 6.04741 16.765 5.34553 16.2568 4.64431C16.1723 4.52777 16.0494 4.46541 15.904 4.46491C15.3375 4.46295 14.771 4.4641 14.2045 4.4641C14.1846 4.4641 14.1646 4.4641 14.1418 4.4641C14.1418 5.45847 14.1418 6.44663 14.1418 7.43774C15.4572 7.43774 16.7675 7.43774 18.0997 7.43774Z" fill="#3A9C3E"/>
<path d="M4.83471 13.9989C3.89304 13.9983 3.11931 13.2237 3.11817 12.2802C3.11686 11.3346 3.89108 10.5578 4.83618 10.5562C5.78636 10.5545 6.55763 11.335 6.55649 12.2971C6.5555 13.2247 5.77146 13.9996 4.83471 13.9989Z" fill="#3A9C3E"/>
<path d="M16.9746 12.2805C16.9762 13.2191 16.1998 13.9966 15.257 14.0007C14.3138 14.0048 13.5311 13.2217 13.5322 12.2753C13.5334 11.3366 14.3129 10.5588 15.2531 10.5581C16.1956 10.5573 16.9729 11.3351 16.9746 12.2805Z" fill="#3A9C3E"/>
</svg>
