<svg width="23" height="23" viewBox="0 0 23 23" fill="none" xmlns="http://www.w3.org/2000/svg">
<circle cx="11.5" cy="11.5" r="11.5" fill="#811B18"/>
<path d="M18.966 8.67271C18.8598 8.36324 18.5169 8.27171 18.1795 8.36324C18.0015 8.41164 17.8228 8.45887 17.6327 8.50991C17.4582 8.08632 17.2925 7.67066 17.1159 7.25939C17.0202 7.03645 16.9349 6.8009 16.7955 6.60612C16.5089 6.20571 16.1006 6.00183 15.6031 6.00125C13.5362 5.99949 11.4693 5.99978 9.40273 6.00095C8.75269 6.00125 8.23728 6.35091 7.9897 6.95138C7.7782 7.46502 7.56641 7.97837 7.34758 8.50873C7.15632 8.45623 6.9721 8.39492 6.78289 8.35766C6.65177 8.33185 6.50891 8.31219 6.38072 8.33713C6.15602 8.38113 6.04162 8.55068 6.0029 8.77098C5.99527 8.8141 5.98676 8.86074 5.99556 8.90211C6.06245 9.21686 5.89172 9.37644 5.65499 9.55743C4.06009 10.7774 3.54499 13.0573 4.43088 14.8552C4.90199 15.8109 5.68374 16.5349 6.6726 16.9332C7.86826 17.4149 9.06333 17.3653 10.2188 16.7877C11.1827 16.3058 11.8703 15.5539 12.2701 14.5519C12.3364 14.3858 12.4118 14.3289 12.5949 14.3304C13.7973 14.3404 15 14.3357 16.2027 14.3357C16.2511 14.3357 16.2995 14.3357 16.3649 14.3357C16.3678 14.3967 16.3714 14.448 16.3722 14.4997C16.3761 14.7437 16.3678 14.9887 16.3851 15.2318C16.4086 15.5642 16.6761 15.83 17.007 15.8435C17.3438 15.857 17.6817 15.8567 18.0185 15.844C18.3561 15.8311 18.6339 15.5621 18.6456 15.2233C18.6624 14.7305 18.6565 14.2371 18.6562 13.7437C18.6559 13.0843 18.6615 12.4248 18.6468 11.7657C18.6336 11.1746 18.4937 10.607 18.2675 10.0608C18.2564 10.0341 18.2482 10.0062 18.232 9.9596C18.2622 10.0456 18.7131 9.81997 18.758 9.78272C18.9349 9.63693 19 9.45212 19 9.22771C19 9.11478 19 9.00155 18.9997 8.88861C18.9991 8.80736 18.9874 8.73549 18.966 8.67271ZM8.29449 15.9634C6.63916 15.9731 5.27893 14.6261 5.26925 12.9672C5.25957 11.3022 6.6022 9.94699 8.27395 9.93408C9.92928 9.92118 11.2921 11.277 11.3015 12.9464C11.3106 14.5959 9.95715 15.9538 8.29449 15.9634ZM11.6157 10.079C11.5482 10.0787 11.464 10.0417 11.4162 9.99334C10.6104 9.17667 9.64503 8.71378 8.4922 8.65863C8.40977 8.65482 8.32734 8.64719 8.22936 8.64044C8.37427 8.28579 8.51391 7.94405 8.65383 7.60231C8.72423 7.431 8.79082 7.25792 8.86797 7.08955C9.0252 6.74692 9.29595 6.55889 9.67349 6.5583C11.5453 6.55449 13.4174 6.55566 15.2892 6.55713C15.6615 6.55742 15.9507 6.72375 16.0962 7.06256C16.4541 7.89565 16.7944 8.73637 17.1338 9.57709C17.2502 9.86573 17.105 10.0673 16.7914 10.0819C16.7718 10.0828 16.7524 10.0831 16.7328 10.0831C15.0273 10.0825 13.3215 10.0837 11.6157 10.079ZM17.3244 12.7044C17.3224 12.908 17.225 13.0206 17.0232 13.0227C16.3881 13.0288 15.7527 13.0285 15.1176 13.0224C14.9205 13.0203 14.8234 12.9162 14.8187 12.717C14.8117 12.4243 14.8105 12.1309 14.8184 11.8385C14.824 11.6331 14.9284 11.5387 15.134 11.5366C15.4467 11.5334 15.7595 11.5357 16.0722 11.5357C16.3752 11.5357 16.6782 11.5343 16.9809 11.536C17.2297 11.5375 17.3236 11.6325 17.325 11.8845C17.3271 12.1576 17.3274 12.431 17.3244 12.7044Z" fill="white"/>
<path d="M9.8405 13.3539L9.34269 12.8561L9.74716 12.4516C9.99338 12.2054 9.99338 11.8059 9.74716 11.5597C9.50095 11.3135 9.10145 11.3135 8.85524 11.5597L8.45076 11.9641L7.95294 11.4663C7.70673 11.2201 7.30723 11.2201 7.06102 11.4663C6.81481 11.7125 6.81481 12.112 7.06102 12.3582L7.55884 12.8561L6.96768 13.4472C6.72147 13.6934 6.72147 14.0929 6.96768 14.3391C7.21389 14.5854 7.61339 14.5854 7.8596 14.3391L8.45076 13.748L8.94858 14.2458C9.19479 14.492 9.59429 14.492 9.8405 14.2458C10.0869 13.9994 10.0867 13.6001 9.8405 13.3539Z" fill="white"/>
</svg>
