<svg width="23" height="23" viewBox="0 0 23 23" fill="none" xmlns="http://www.w3.org/2000/svg">
<circle cx="11.5" cy="11.5" r="11.5" fill="#5D7592"/>
<path d="M6.1347 15.3916C5.84101 15.6912 5.53701 16.0043 5.22957 16.3139C4.81902 16.7276 4.40629 17.1397 3.99325 17.5509C3.82484 17.7183 3.62394 17.7852 3.39336 17.709C3.18434 17.6399 3.05437 17.4893 3.01125 17.2734C2.96876 17.0613 3.04968 16.8857 3.19746 16.7373C3.47991 16.453 3.76329 16.1693 4.04667 15.8856C4.45503 15.4769 4.86401 15.0685 5.27237 14.6596C5.29799 14.6339 5.32143 14.6068 5.32861 14.5986C5.16458 14.2649 4.98149 13.9544 4.85433 13.6226C4.28538 12.1372 4.77403 10.3757 6.02035 9.38278C6.12127 9.30248 6.16657 9.22312 6.1547 9.09627C6.1447 8.98785 6.14876 8.87725 6.15814 8.76852C6.18657 8.44796 6.45183 8.24237 6.76802 8.29674C6.8905 8.31798 7.01047 8.35392 7.13139 8.38485C7.24636 8.41422 7.36103 8.44577 7.48944 8.47983C7.58786 8.24394 7.68409 8.01523 7.77876 7.78559C7.8953 7.50221 8.00872 7.21726 8.12651 6.9345C8.37427 6.34056 8.88667 6.00094 9.52748 6.00062C11.5271 6.00094 13.5264 6 15.526 6C16.2971 6 16.772 6.32556 17.0601 7.04073C17.2519 7.51752 17.4506 7.99149 17.6522 8.48108C17.8534 8.42765 18.0468 8.3736 18.2414 8.32455C18.7182 8.20488 19 8.42703 18.9997 8.92068C18.9997 9.0091 19.0003 9.09783 18.9994 9.18625C18.9941 9.59867 18.7391 9.87206 18.3308 9.90392C18.3061 9.9058 18.2814 9.90955 18.2667 9.91111C18.3589 10.2289 18.4711 10.5376 18.5348 10.8556C18.6017 11.1905 18.6526 11.5342 18.6579 11.8751C18.6732 12.9005 18.6507 13.9266 18.6673 14.9523C18.6757 15.4819 18.3198 15.7697 17.8634 15.7468C17.6243 15.735 17.3844 15.7456 17.1451 15.7431C16.6973 15.7387 16.4121 15.4569 16.4065 15.012C16.4033 14.763 16.4058 14.514 16.4058 14.255C16.3508 14.2521 16.3059 14.2478 16.2609 14.2478C14.803 14.2471 13.3452 14.2496 11.8873 14.2425C11.7377 14.2418 11.6561 14.2893 11.5758 14.4112C11.0178 15.2579 10.2398 15.8018 9.25254 16.023C8.2193 16.2546 7.24824 16.0768 6.35216 15.5075C6.29936 15.4741 6.24781 15.4388 6.19532 15.4054C6.18657 15.3997 6.17501 15.4 6.1347 15.3916ZM8.4027 8.51732C8.44019 8.52232 8.46019 8.52669 8.48019 8.52732C9.66183 8.56481 10.6254 9.04409 11.3837 9.9486C11.4249 9.99797 11.5137 10.0302 11.5808 10.0311C12.117 10.0383 12.6531 10.0364 13.1893 10.0364C14.3865 10.0364 15.5841 10.037 16.7814 10.0355C17.1294 10.0348 17.2791 9.83175 17.1532 9.51931C16.8245 8.7051 16.4949 7.89088 16.1515 7.08291C16.0075 6.74392 15.7335 6.55395 15.357 6.55333C13.5036 6.55083 11.6505 6.55114 9.79712 6.55427C9.40907 6.55489 9.13756 6.74642 8.98259 7.10072C8.9076 7.27194 8.83824 7.44597 8.76732 7.61906C8.64609 7.91619 8.52612 8.21332 8.4027 8.51732ZM8.4202 14.982C9.88148 14.9795 11.0675 13.7941 11.0728 12.3306C11.0784 10.8637 9.88929 9.66647 8.42051 9.65991C6.95642 9.65335 5.74947 10.8659 5.75478 12.3375C5.7604 13.7916 6.96236 14.9845 8.4202 14.982ZM16.1006 12.9433C16.1006 12.9427 16.1006 12.9424 16.1006 12.9418C16.4071 12.9418 16.7139 12.9449 17.0204 12.9408C17.2507 12.9377 17.3425 12.8465 17.3453 12.6193C17.3491 12.3438 17.3482 12.0685 17.345 11.7929C17.3425 11.5786 17.245 11.4736 17.0313 11.4717C16.418 11.4671 15.8047 11.4667 15.1914 11.4705C14.9783 11.4717 14.8761 11.5792 14.8733 11.7901C14.8699 12.0604 14.8696 12.3306 14.8721 12.6009C14.8743 12.8455 14.968 12.9402 15.2117 12.9427C15.5082 12.9452 15.8044 12.9433 16.1006 12.9433Z" fill="white"/>
</svg>
